<svg width="99" height="46" viewBox="0 0 99 46" fill="none" xmlns="http://www.w3.org/2000/svg">
<path d="M79.6413 8.50103C79.5459 7.64289 70.2099 6.45286 69.1691 6.2785C64.1156 5.4319 58.7133 6.00069 53.609 6.00069C48.3924 6.00069 43.9511 7.85177 38.9628 9.22335C34.0434 10.576 29.4102 12.1434 24.5388 13.724C20.8841 14.9098 17.8296 15.9804 14.8323 18.7247C13.9574 19.5257 13.7904 20.7524 12.8564 21.5028C11.8594 22.3038 10.246 23.1225 9.74436 24.3921C8.24634 28.1834 7.77786 32.2129 9.64556 36.0326C11.9236 40.6915 19.4037 42.1949 23.4274 43.1725C26.2328 43.8541 29.3199 43.5059 32.1707 43.5059C36.7811 43.5059 41.3915 43.5059 46.0019 43.5059C57.9448 43.5059 70.3228 42.9332 80.4317 35.1158C84.5224 31.9524 89.4536 29.933 93.3737 26.5035C95.7143 24.4558 93.7359 20.234 92.7562 18.0301C90.5573 13.0832 84.2935 9.32515 79.7401 8.11209C72.923 6.29596 64.8799 7.50089 57.956 7.50089C49.9948 7.50089 42.5255 7.56453 34.7887 10.0012C29.2923 11.7323 24.1918 14.4535 18.784 16.391C17.7504 16.7613 13.5714 17.0671 12.9552 18.2802C11.8671 20.422 8.66018 21.8817 6.95342 23.2808C4.58909 25.2191 0.0575422 27.958 1.17395 31.9765C2.02573 35.0424 3.83617 36.8978 6.13836 38.5052C7.84639 39.6977 10.5915 40.2321 12.5106 40.8944C16.7801 42.3679 20.9101 43.9949 25.4032 44.3949C32.9335 45.0652 41.7198 45.4004 49.188 44.2004C53.4725 43.5119 57.6484 41.8446 61.8583 40.7555C65.5322 39.805 70.1857 39.0272 73.6149 37.2272C76.421 35.7542 79.3682 34.6477 82.2594 33.3933C86.8154 31.4166 92.5508 28.7861 96.0165 24.7255C98.8737 21.3777 98.355 15.9617 96.2881 12.3349C91.7085 4.29895 80.9711 4.08859 73.4667 2.50021C70.1565 1.79958 67.0414 1 63.6613 1C59.3396 1 55.263 2.99802 51.1392 4.25045C43.9415 6.43639 36.5156 7.93556 29.4044 10.418C22.5518 12.8101 14.6515 15.0972 8.73171 19.8915C4.26965 23.5052 3.93306 29.052 4.06369 34.7824C4.13904 38.0881 11.321 37.6662 13.0046 37.7828C24.7874 38.5992 36.7193 38.0051 48.5211 38.0051" stroke="#F5721A" stroke-linecap="round"/>
</svg>
